<?xml version="1.0" encoding="UTF-8" standalone="no"?>
<!-- Created with Inkscape (http://www.inkscape.org/) -->

<svg
   xmlns:dc="http://purl.org/dc/elements/1.1/"
   xmlns:cc="http://creativecommons.org/ns#"
   xmlns:rdf="http://www.w3.org/1999/02/22-rdf-syntax-ns#"
   xmlns:svg="http://www.w3.org/2000/svg"
   xmlns="http://www.w3.org/2000/svg"
   xmlns:sodipodi="http://sodipodi.sourceforge.net/DTD/sodipodi-0.dtd"
   xmlns:inkscape="http://www.inkscape.org/namespaces/inkscape"
   width="200"
   height="100"
   viewBox="0 0 200 100"
   id="svg2"
   version="1.1"
   inkscape:version="0.91 r13725"
   sodipodi:docname="logo-text.svg">
  <defs
     id="defs4" />
  <sodipodi:namedview
     id="base"
     pagecolor="#ffffff"
     bordercolor="#666666"
     borderopacity="1.0"
     inkscape:pageopacity="0.0"
     inkscape:pageshadow="2"
     inkscape:zoom="2.8"
     inkscape:cx="124.49967"
     inkscape:cy="31.773411"
     inkscape:document-units="px"
     inkscape:current-layer="layer1"
     showgrid="false"
     showguides="true"
     inkscape:guide-bbox="true"
     inkscape:window-width="1366"
     inkscape:window-height="715"
     inkscape:window-x="-8"
     inkscape:window-y="-8"
     inkscape:window-maximized="1"
     units="px">
    <sodipodi:guide
       position="201.02036,509.62197"
       orientation="1,0"
       id="guide4160" />
    <sodipodi:guide
       position="207.96516,511.51601"
       orientation="1,0"
       id="guide4162" />
  </sodipodi:namedview>
  <metadata
     id="metadata7">
    <rdf:RDF>
      <cc:Work
         rdf:about="">
        <dc:format>image/svg+xml</dc:format>
        <dc:type
           rdf:resource="http://purl.org/dc/dcmitype/StillImage" />
        <dc:title></dc:title>
      </cc:Work>
    </rdf:RDF>
  </metadata>
  <g
     inkscape:label="Calque 1"
     inkscape:groupmode="layer"
     id="layer1"
     transform="translate(0,-952.36216)">
    <g
       style="font-style:normal;font-weight:normal;font-size:40px;line-height:125%;font-family:sans-serif;letter-spacing:0px;word-spacing:0px;fill:#000000;fill-opacity:1;stroke:none;stroke-width:1px;stroke-linecap:butt;stroke-linejoin:miter;stroke-opacity:1"
       id="text4136"
       transform="matrix(2.3389678,0,0,2.3389678,-512.90695,-322.91318)">
      <path
         d="m 241.06285,572.36218 -1.16,0 q -2.52,0 -3.88,-1.04 -1.36,-1.08 -1.36,-3.88 l 0,-6.68 -11.72,0 0,11.6 -3.4,0 0,-26 3.4,0 0,11.2 11.72,0 0,-11.2 3.4,0 0,20.04 q 0,1.52 0.44,2.24 0.44,0.68 1.64,0.68 l 0.92,0 0,3.04 z"
         style="font-style:normal;font-variant:normal;font-weight:normal;font-stretch:normal;font-family:Five;-inkscape-font-specification:Five;fill:#666666;fill-opacity:1"
         id="path4165"
         inkscape:connector-curvature="0" />
      <path
         d="m 259.02848,572.36218 -8.08,0 q -2.08,0 -3.56,-0.56 -1.48,-0.56 -2.44,-1.44 -0.96,-0.92 -1.4,-2.08 -0.44,-1.16 -0.44,-2.36 0,-2.04 1,-4.12 1,-2.12 2.64,-3.8 1.64,-1.72 3.76,-2.8 2.16,-1.12 4.4,-1.12 0.88,0 1.56,0.32 0.68,0.32 1.12,0.88 0.48,0.52 0.72,1.24 0.24,0.68 0.24,1.44 0,2.8 -1.56,4.48 -1.56,1.68 -5.08,2.56 l -5.52,1.36 q 0.28,1.28 1.44,2.12 1.16,0.84 3.44,0.84 l 7.76,0 0,3.04 z m -4.68,-15.36 q -1.04,0 -2.16,0.56 -1.12,0.52 -2.16,1.4 -1,0.88 -1.84,1.96 -0.8,1.04 -1.28,2.08 l 2.56,-0.6 q 2.12,-0.48 3.32,-1 1.2,-0.56 1.76,-1.12 0.6,-0.56 0.72,-1.08 0.16,-0.52 0.16,-0.96 0,-0.68 -0.32,-0.96 -0.32,-0.28 -0.76,-0.28 z"
         style="font-style:normal;font-variant:normal;font-weight:normal;font-stretch:normal;font-family:Five;-inkscape-font-specification:Five;fill:#666666;fill-opacity:1"
         id="path4167"
         inkscape:connector-curvature="0" />
      <path
         d="m 265.1591,546.36218 0,20.16 q 0,1.56 0.44,2.2 0.44,0.6 2,0.6 l 0.72,0 0,3.04 -1.44,0 q -1.24,0 -2.2,-0.2 -0.96,-0.24 -1.6,-0.76 -0.64,-0.56 -0.96,-1.48 -0.32,-0.96 -0.32,-2.36 l 0,-21.2 3.36,0 z"
         style="font-style:normal;font-variant:normal;font-weight:normal;font-stretch:normal;font-family:Five;-inkscape-font-specification:Five;fill:#666666;fill-opacity:1"
         id="path4169"
         inkscape:connector-curvature="0" />
      <path
         d="m 274.45598,546.36218 0,20.16 q 0,1.56 0.44,2.2 0.44,0.6 2,0.6 l 0.72,0 0,3.04 -1.44,0 q -1.24,0 -2.2,-0.2 -0.96,-0.24 -1.6,-0.76 -0.64,-0.56 -0.96,-1.48 -0.32,-0.96 -0.32,-2.36 l 0,-21.2 3.36,0 z"
         style="font-style:normal;font-variant:normal;font-weight:normal;font-stretch:normal;font-family:Five;-inkscape-font-specification:Five;fill:#666666;fill-opacity:1"
         id="path4171"
         inkscape:connector-curvature="0" />
      <path
         d="m 304.71285,549.40218 -0.68,0 q -0.96,0 -2,0.4 -1,0.36 -2.08,0.92 1.4,1.92 2.08,4.32 0.68,2.4 0.68,4.84 0,2.48 -0.72,4.76 -0.68,2.28 -2.12,4.04 -1.44,1.76 -3.64,2.8 -2.16,1.04 -5.08,1.04 -2.92,0 -5.12,-1.04 -2.16,-1.04 -3.6,-2.8 -1.44,-1.76 -2.16,-4.04 -0.68,-2.28 -0.68,-4.76 0,-2.52 0.72,-4.96 0.72,-2.48 2.16,-4.44 1.48,-1.96 3.64,-3.16 2.16,-1.24 5.04,-1.24 2,0 3.64,0.6 1.64,0.6 2.92,1.64 1.52,-0.76 2.96,-1.36 1.48,-0.6 2.76,-0.6 l 1.28,0 0,3.04 z m -5.4,10.32 q 0,-2.04 -0.6,-4 -0.56,-1.96 -1.72,-3.44 -1.24,0.6 -2.56,1.04 -1.28,0.44 -2.64,0.44 -1.4,0 -2.64,-0.8 -1.24,-0.8 -1.88,-2.52 -1.08,0.68 -1.88,1.68 -0.8,1 -1.36,2.24 -0.52,1.2 -0.8,2.6 -0.24,1.36 -0.24,2.76 0,1.92 0.48,3.68 0.52,1.72 1.52,3.04 1.04,1.32 2.56,2.12 1.56,0.76 3.6,0.76 2.04,0 3.56,-0.76 1.52,-0.8 2.52,-2.12 1.04,-1.32 1.56,-3.04 0.52,-1.76 0.52,-3.68 z m -8.16,-10.36 q -0.72,0 -1.36,0.12 0.32,0.72 0.88,1 0.6,0.24 1.36,0.24 0.44,0 1,-0.16 0.56,-0.2 1.24,-0.52 -1.44,-0.68 -3.12,-0.68 z"
         style="font-style:normal;font-variant:normal;font-weight:normal;font-stretch:normal;font-family:Five;-inkscape-font-specification:Five;opacity:0.9;fill:#00b5b5;fill-opacity:1"
         id="path4173"
         inkscape:connector-curvature="0" />
    </g>
    <circle
       style="opacity:1;fill:#666666;fill-opacity:1;stroke:none;stroke-width:1;stroke-miterlimit:4;stroke-dasharray:none;stroke-opacity:1"
       id="path4140"
       cx="160.76265"
       cy="979.93829"
       r="3.3116994" />
    <circle
       cy="979.93829"
       cx="174.72502"
       id="circle4142"
       style="opacity:1;fill:#666666;fill-opacity:1;stroke:none;stroke-width:1;stroke-miterlimit:4;stroke-dasharray:none;stroke-opacity:1"
       r="3.3116994" />
    <path
       style="opacity:1;fill:#666666;fill-opacity:1;stroke:none;stroke-width:1;stroke-miterlimit:4;stroke-dasharray:none;stroke-opacity:1"
       id="path4144"
       sodipodi:type="arc"
       sodipodi:cx="167.80267"
       sodipodi:cy="993.96179"
       sodipodi:rx="11.813571"
       sodipodi:ry="11.813571"
       sodipodi:start="0"
       sodipodi:end="3.1415927"
       d="m 179.61624,993.96179 a 11.813571,11.813571 0 0 1 -5.90678,10.23081 11.813571,11.813571 0 0 1 -11.81357,0 11.813571,11.813571 0 0 1 -5.90679,-10.23081 l 11.81357,0 z" />
    <g
       style="font-style:normal;font-weight:normal;font-size:25.77353287px;line-height:125%;font-family:sans-serif;letter-spacing:0px;word-spacing:0px;fill:#666666;fill-opacity:1;stroke:none;stroke-width:1px;stroke-linecap:butt;stroke-linejoin:miter;stroke-opacity:1"
       id="text4197">
      <path
         d="m 17.401906,1045.4058 -0.747433,0 q -1.623732,0 -2.500032,-0.6702 -0.8763,-0.6958 -0.8763,-2.5 l 0,-9.6908 -5.1804806,7.0104 -5.1804801,-7.0104 0,12.861 -2.19075026,0 0,-16.7528 2.19075026,0 5.1804801,7.2166 5.1804806,-7.2166 2.19075,0 0,12.9125 q 0,0.9794 0.283509,1.4433 0.283509,0.4382 1.056715,0.4382 l 0.592791,0 0,1.9588 z"
         style="font-style:normal;font-variant:normal;font-weight:normal;font-stretch:normal;font-family:Five;-inkscape-font-specification:Five;fill:#666666"
         id="path4202" />
      <path
         d="m 28.987511,1045.4058 -5.206254,0 q -1.340224,0 -2.293844,-0.3609 -0.953621,-0.3608 -1.572186,-0.9278 -0.618565,-0.5928 -0.902073,-1.3402 -0.283509,-0.7475 -0.283509,-1.5207 0,-1.3144 0.644338,-2.6547 0.644338,-1.3659 1.701053,-2.4484 1.056715,-1.1083 2.422712,-1.8042 1.391771,-0.7216 2.835089,-0.7216 0.567018,0 1.005168,0.2061 0.43815,0.2062 0.721659,0.5671 0.309282,0.335 0.463923,0.7989 0.154641,0.4382 0.154641,0.9279 0,1.8041 -1.005167,2.8866 -1.005168,1.0825 -3.273239,1.6495 l -3.556748,0.8763 q 0.180415,0.8248 0.927848,1.366 0.747432,0.5413 2.216523,0.5413 l 5.000066,0 0,1.9588 z m -3.015504,-9.8971 q -0.670111,0 -1.39177,0.3609 -0.721659,0.335 -1.391771,0.902 -0.644338,0.567 -1.185583,1.2629 -0.51547,0.6701 -0.824753,1.3403 l 1.649506,-0.3866 q 1.365998,-0.3093 2.139204,-0.6444 0.773206,-0.3608 1.134035,-0.7216 0.386603,-0.3609 0.463924,-0.6959 0.103094,-0.3351 0.103094,-0.6186 0,-0.4381 -0.206188,-0.6186 -0.206189,-0.1804 -0.489698,-0.1804 z"
         style="font-style:normal;font-variant:normal;font-weight:normal;font-stretch:normal;font-family:Five;-inkscape-font-specification:Five;fill:#666666"
         id="path4204" />
      <path
         d="m 40.515125,1045.4058 -5.206253,0 q -1.340224,0 -2.293845,-0.3609 -0.95362,-0.3608 -1.572185,-0.9278 -0.618565,-0.5928 -0.902074,-1.3402 -0.283509,-0.7475 -0.283509,-1.5207 0,-1.3144 0.644339,-2.6547 0.644338,-1.3659 1.701053,-2.4484 1.056715,-1.1083 2.422712,-1.8042 1.391771,-0.7216 2.835088,-0.7216 0.567018,0 1.005168,0.2061 0.43815,0.2062 0.721659,0.5671 0.309283,0.335 0.463924,0.7989 0.154641,0.4382 0.154641,0.9279 0,1.8041 -1.005168,2.8866 -1.005168,1.0825 -3.273239,1.6495 l -3.556747,0.8763 q 0.180415,0.8248 0.927847,1.366 0.747433,0.5413 2.216524,0.5413 l 5.000065,0 0,1.9588 z m -3.015503,-9.8971 q -0.670112,0 -1.391771,0.3609 -0.721659,0.335 -1.391771,0.902 -0.644338,0.567 -1.185582,1.2629 -0.515471,0.6701 -0.824753,1.3403 l 1.649506,-0.3866 q 1.365997,-0.3093 2.139203,-0.6444 0.773206,-0.3608 1.134036,-0.7216 0.386603,-0.3609 0.463923,-0.6959 0.103094,-0.3351 0.103094,-0.6186 0,-0.4381 -0.206188,-0.6186 -0.206188,-0.1804 -0.489697,-0.1804 z"
         style="font-style:normal;font-variant:normal;font-weight:normal;font-stretch:normal;font-family:Five;-inkscape-font-specification:Five;fill:#666666"
         id="path4206" />
      <path
         d="m 41.784874,1033.8077 1.443318,0 0,-2.1908 2.164976,0 0,2.1908 3.092824,0 0,1.9588 -3.092824,0 0,4.4588 q 0,1.0567 0.154642,1.701 0.154641,0.6186 0.463923,0.9537 0.335056,0.335 0.824753,0.4639 0.515471,0.1031 1.211356,0.1031 l 1.391771,0 0,1.9588 -1.804147,0 q -0.927847,0 -1.726827,-0.1805 -0.798979,-0.1804 -1.391771,-0.6701 -0.592791,-0.4897 -0.95362,-1.366 -0.335056,-0.902 -0.335056,-2.2938 l 0,-5.1289 -1.443318,0 0,-1.9588 z"
         style="font-style:normal;font-variant:normal;font-weight:normal;font-stretch:normal;font-family:Five;-inkscape-font-specification:Five;fill:#666666"
         id="path4208" />
      <path
         d="m 60.647074,1048.8594 2.164977,0 q 0.592791,0 1.185582,-0.1031 0.592791,-0.1031 1.056715,-0.4897 0.489697,-0.3608 0.773206,-1.0567 0.309282,-0.6959 0.309282,-1.9072 l 0,-4.3815 q -0.386603,0.9536 -0.95362,1.8041 -0.541245,0.8248 -1.23713,1.4433 -0.695885,0.6186 -1.520638,0.9794 -0.79898,0.3609 -1.726827,0.3609 -1.726827,0 -2.396939,-1.0052 -0.644338,-1.031 -0.644338,-3.299 l 0,-7.397 2.164977,0 0,7.6805 q 0,0.9278 0.257735,1.4433 0.257735,0.5155 0.979394,0.5155 0.773206,0 1.443318,-0.464 0.670112,-0.4896 1.211356,-1.2886 0.567018,-0.799 1.005168,-1.8042 0.43815,-1.0309 0.747432,-2.0876 0.309283,-1.0825 0.463924,-2.1135 0.180415,-1.0309 0.206188,-1.8814 l 2.164977,0 0,12.1909 q 0,1.3917 -0.463924,2.3453 -0.43815,0.9794 -1.159809,1.5722 -0.695885,0.5928 -1.597959,0.8506 -0.902073,0.2577 -1.804147,0.2577 l -2.6289,0 0,-2.165 z"
         style="font-style:normal;font-variant:normal;font-weight:normal;font-stretch:normal;font-family:Five;-inkscape-font-specification:Five;fill:#666666"
         id="path4210" />
      <path
         d="m 83.72687,1035.7665 -0.206189,0 q -0.51547,0 -1.056715,0.2319 -0.51547,0.232 -1.108261,0.567 0.824753,1.4949 0.824753,3.1444 0,1.134 -0.386603,2.1908 -0.386603,1.0309 -1.134036,1.8299 -0.721659,0.799 -1.829921,1.2887 -1.108262,0.4897 -2.525806,0.4897 -1.443318,0 -2.55158,-0.4897 -1.082488,-0.4897 -1.82992,-1.2887 -0.721659,-0.799 -1.108262,-1.8299 -0.386603,-1.0568 -0.386603,-2.1908 0,-1.1083 0.386603,-2.1907 0.386603,-1.1083 1.108262,-1.9588 0.747432,-0.8763 1.82992,-1.3918 1.108262,-0.5412 2.55158,-0.5412 1.185583,0 2.11343,0.3866 0.953621,0.3608 1.675279,0.9794 0.773206,-0.464 1.572186,-0.8248 0.798979,-0.3608 1.520638,-0.3608 l 0.541245,0 0,1.9588 z m -7.422778,7.8093 q 0.927847,0 1.623733,-0.3092 0.695885,-0.3351 1.185582,-0.8506 0.489697,-0.5412 0.721659,-1.2371 0.257735,-0.7217 0.257735,-1.4949 0,-1.2113 -0.463923,-2.1392 -0.618565,0.3093 -1.288677,0.5413 -0.670112,0.2062 -1.365997,0.2062 -0.824753,0 -1.572186,-0.5155 -0.721658,-0.5412 -1.056714,-1.7784 -0.902074,0.5155 -1.365998,1.4949 -0.463923,0.9794 -0.463923,2.1907 0,0.7732 0.231962,1.4949 0.257735,0.6959 0.747432,1.2371 0.489697,0.5155 1.185583,0.8506 0.695885,0.3092 1.623732,0.3092 z m 0,-8.0671 q -0.283509,0 -0.412376,0.026 0.180414,0.4639 0.51547,0.6443 0.36083,0.1805 0.773206,0.1805 0.231962,0 0.489697,-0.077 0.283509,-0.1031 0.618565,-0.2577 -0.824753,-0.5155 -1.984562,-0.5155 z"
         style="font-style:normal;font-variant:normal;font-weight:normal;font-stretch:normal;font-family:Five;-inkscape-font-specification:Five;fill:#666666"
         id="path4212" />
      <path
         d="m 97.973996,1045.4058 -0.927847,0 q -0.79898,0 -1.417544,-0.1289 -0.618565,-0.1546 -1.030942,-0.4897 -0.412376,-0.3608 -0.618564,-0.9536 -0.206189,-0.6186 -0.206189,-1.5207 l 0,-1.3144 q -0.386603,0.9536 -0.95362,1.7784 -0.541245,0.8247 -1.23713,1.4433 -0.695885,0.5928 -1.520638,0.9536 -0.79898,0.3351 -1.726827,0.3351 -1.726827,0 -2.396939,-1.0052 -0.644338,-1.031 -0.644338,-3.299 l 0,-7.397 2.164977,0 0,7.6805 q 0,0.9278 0.257735,1.4433 0.257735,0.5155 0.979394,0.5155 0.773206,0 1.443318,-0.464 0.670112,-0.4896 1.211356,-1.2886 0.567018,-0.799 1.005168,-1.8042 0.43815,-1.0309 0.747432,-2.0876 0.309283,-1.0825 0.463924,-2.1135 0.180415,-1.0309 0.206188,-1.8814 l 2.164977,0 0,7.8351 q 0,1.0052 0.283509,1.4176 0.309282,0.3866 1.288677,0.3866 l 0.463923,0 0,1.9588 z"
         style="font-style:normal;font-variant:normal;font-weight:normal;font-stretch:normal;font-family:Five;-inkscape-font-specification:Five;fill:#666666"
         id="path4214" />
      <path
         d="m 99.417719,1038.3696 0.386603,-2.732 q -0.618565,-0.1289 -1.005168,-0.5928 -0.36083,-0.4639 -0.36083,-1.134 0,-0.7732 0.489697,-1.2629 0.515471,-0.4897 1.262899,-0.4897 0.74744,0 1.23713,0.4639 0.4897,0.4381 0.54125,1.1856 l 1.82992,0 q 1.21136,0 1.77837,0.7732 0.59279,0.7732 0.59279,1.8299 0,0.077 -0.0258,0.1804 0,0.077 0,0.1547 l 0,0.2061 -0.54124,4.3558 q -0.0258,0.2062 -0.0515,0.4123 0,0.2062 0,0.3609 0,0.7474 0.46392,1.0567 0.46393,0.3093 1.93302,0.3093 l 2.60312,0 0,1.9588 -3.0155,0 q -2.31962,0 -3.24746,-0.6186 -0.92785,-0.6443 -0.92785,-2.1134 0,-0.2062 0,-0.4124 0.0258,-0.232 0.0516,-0.4639 l 0.54124,-4.4073 0,-0.1804 q 0,-0.077 0,-0.1547 0.0258,-0.1031 0.0258,-0.1546 0,-0.567 -0.25773,-0.9021 -0.23196,-0.335 -0.85053,-0.335 l -1.13403,0 -0.38661,2.9897 -1.933011,-0.2835 z"
         style="font-style:normal;font-variant:normal;font-weight:normal;font-stretch:normal;font-family:Five;-inkscape-font-specification:Five;fill:#666666"
         id="path4216" />
      <path
         d="m 117.69115,1032.519 0,-0.8505 q 0,-0.6186 0.12887,-1.1598 0.15464,-0.5413 0.4897,-0.9537 0.36082,-0.4123 0.97939,-0.6443 0.61856,-0.2577 1.57219,-0.2577 l 9.6393,0 0,1.9588 -6.75267,0 0,5.1804 6.1341,0 0,1.9073 -6.1341,0 0,7.7063 -2.19075,0 0,-14.794 -0.36083,0 q -0.97939,0 -1.31445,0.3608 -0.30928,0.335 -0.30928,1.0052 l 0,0.5412 -1.88147,0 z"
         style="font-style:normal;font-variant:normal;font-weight:normal;font-stretch:normal;font-family:Five;-inkscape-font-specification:Five;fill:#666666"
         id="path4218" />
      <path
         d="m 132.89311,1038.3696 0.3866,-2.732 q -0.61857,-0.1289 -1.00517,-0.5928 -0.36083,-0.4639 -0.36083,-1.134 0,-0.7732 0.4897,-1.2629 0.51547,-0.4897 1.2629,-0.4897 0.74743,0 1.23713,0.4639 0.4897,0.4381 0.54125,1.1856 l 1.82992,0 q 1.21135,0 1.77837,0.7732 0.59279,0.7732 0.59279,1.8299 0,0.077 -0.0258,0.1804 0,0.077 0,0.1547 l 0,0.2061 -0.54125,4.3558 q -0.0258,0.2062 -0.0515,0.4123 0,0.2062 0,0.3609 0,0.7474 0.46392,1.0567 0.46392,0.3093 1.93302,0.3093 l 2.60312,0 0,1.9588 -3.0155,0 q -2.31962,0 -3.24747,-0.6186 -0.92784,-0.6443 -0.92784,-2.1134 0,-0.2062 0,-0.4124 0.0258,-0.232 0.0515,-0.4639 l 0.54125,-4.4073 0,-0.1804 q 0,-0.077 0,-0.1547 0.0258,-0.1031 0.0258,-0.1546 0,-0.567 -0.25773,-0.9021 -0.23197,-0.335 -0.85053,-0.335 l -1.13404,0 -0.3866,2.9897 -1.93301,-0.2835 z"
         style="font-style:normal;font-variant:normal;font-weight:normal;font-stretch:normal;font-family:Five;-inkscape-font-specification:Five;fill:#666666"
         id="path4220" />
      <path
         d="m 148.31293,1030.6891 q 0,0.7216 -0.46393,1.1856 -0.46392,0.4639 -1.18558,0.4639 -0.69588,0 -1.15981,-0.4639 -0.46392,-0.464 -0.46392,-1.1856 0,-0.7217 0.46392,-1.1598 0.46393,-0.464 1.15981,-0.464 0.72166,0 1.18558,0.464 0.46393,0.4381 0.46393,1.1598 z m -2.16498,14.7167 0,-7.8352 q 0,-1.0052 -0.28351,-1.3918 -0.28351,-0.4123 -1.28868,-0.4123 l -0.46392,0 0,-1.9588 0.92785,0 q 0.79898,0 1.41754,0.1546 0.61857,0.1289 1.03094,0.4897 0.41238,0.3351 0.61857,0.9536 0.20619,0.5928 0.20619,1.4949 l 0,8.5053 -2.16498,0 z"
         style="font-style:normal;font-variant:normal;font-weight:normal;font-stretch:normal;font-family:Five;-inkscape-font-specification:Five;fill:#666666"
         id="path4222" />
      <path
         d="m 160.72449,1045.4058 -5.20626,0 q -1.34022,0 -2.29384,-0.3609 -0.95362,-0.3608 -1.57219,-0.9278 -0.61856,-0.5928 -0.90207,-1.3402 -0.28351,-0.7475 -0.28351,-1.5207 0,-1.3144 0.64434,-2.6547 0.64434,-1.3659 1.70105,-2.4484 1.05672,-1.1083 2.42271,-1.8042 1.39178,-0.7216 2.83509,-0.7216 0.56702,0 1.00517,0.2061 0.43815,0.2062 0.72166,0.5671 0.30928,0.335 0.46392,0.7989 0.15464,0.4382 0.15464,0.9279 0,1.8041 -1.00516,2.8866 -1.00517,1.0825 -3.27324,1.6495 l -3.55675,0.8763 q 0.18042,0.8248 0.92785,1.366 0.74743,0.5413 2.21652,0.5413 l 5.00007,0 0,1.9588 z m -3.01551,-9.8971 q -0.67011,0 -1.39177,0.3609 -0.72166,0.335 -1.39177,0.902 -0.64434,0.567 -1.18558,1.2629 -0.51547,0.6701 -0.82475,1.3403 l 1.6495,-0.3866 q 1.366,-0.3093 2.13921,-0.6444 0.7732,-0.3608 1.13403,-0.7216 0.3866,-0.3609 0.46393,-0.6959 0.10309,-0.3351 0.10309,-0.6186 0,-0.4381 -0.20619,-0.6186 -0.20619,-0.1804 -0.4897,-0.1804 z"
         style="font-style:normal;font-variant:normal;font-weight:normal;font-stretch:normal;font-family:Five;-inkscape-font-specification:Five;fill:#666666"
         id="path4224" />
      <path
         d="m 161.47877,1033.8077 0.92785,0 q 0.79898,0 1.41754,0.1546 0.61857,0.1289 1.03094,0.4897 0.41238,0.3351 0.61857,0.9536 0.20618,0.5928 0.20618,1.4949 l 0,1.3144 q 0.38661,-0.9536 0.92785,-1.7783 0.56702,-0.8506 1.26291,-1.4691 0.69588,-0.6186 1.49486,-0.9794 0.82475,-0.3608 1.7526,-0.3608 1.72683,0 2.37117,1.0309 0.67011,1.0052 0.67011,3.2732 l 0,7.4744 -2.16498,0 0,-7.7579 q 0,-0.9278 -0.25773,-1.4433 -0.25774,-0.5155 -0.9794,-0.5155 -0.77321,0 -1.44332,0.4897 -0.67011,0.4897 -1.23713,1.2887 -0.54124,0.799 -0.97939,1.8299 -0.43815,1.031 -0.74743,2.1135 -0.30929,1.0567 -0.4897,2.1134 -0.15464,1.0567 -0.18042,1.8815 l -2.16497,0 0,-7.8352 q 0,-1.0052 -0.30928,-1.3918 -0.28351,-0.4123 -1.26291,-0.4123 l -0.46392,0 0,-1.9588 z"
         style="font-style:normal;font-variant:normal;font-weight:normal;font-stretch:normal;font-family:Five;-inkscape-font-specification:Five;fill:#666666"
         id="path4226" />
      <path
         d="m 186.8649,1028.653 0,12.9898 q 0,1.0052 0.28351,1.4176 0.28351,0.3866 1.28868,0.3866 l 0.46392,0 0,1.9588 -0.92785,0 q -1.39177,0 -2.21652,-0.4382 -0.79898,-0.4639 -1.00517,-1.7526 -0.74743,0.9536 -1.90724,1.6237 -1.15981,0.6702 -2.55158,0.6702 -0.97939,0 -1.77837,-0.3351 -0.77321,-0.3351 -1.34023,-0.9278 -0.56701,-0.6186 -0.8763,-1.4691 -0.30928,-0.8506 -0.30928,-1.8557 0,-1.2114 0.4897,-2.4743 0.4897,-1.2629 1.46909,-2.2938 1.00517,-1.031 2.50003,-1.6753 1.52064,-0.6701 3.58252,-0.6701 l 0.67012,0 0,-5.1547 2.16497,0 z m -6.08255,14.8197 q 0.72166,0 1.41754,-0.3608 0.72166,-0.3608 1.26291,-0.9536 0.56701,-0.6186 0.90207,-1.3918 0.33506,-0.799 0.33506,-1.6495 l 0,-3.3763 -1.03095,0 q -1.05671,0 -2.0361,0.3866 -0.9794,0.3608 -1.7526,1.0567 -0.74744,0.6701 -1.21136,1.6237 -0.46392,0.9279 -0.46392,2.0619 0,1.1341 0.69588,1.8815 0.69589,0.7216 1.88147,0.7216 z"
         style="font-style:normal;font-variant:normal;font-weight:normal;font-stretch:normal;font-family:Five;-inkscape-font-specification:Five;fill:#666666"
         id="path4228" />
      <path
         d="m 188.9002,1040.7408 7.21659,-8.3507 1.49486,1.2887 -1.57218,1.8042 q -0.4897,0.6185 -0.4897,1.134 0,0.4124 0.18042,0.799 0.20618,0.3608 0.43815,0.6443 l 2.5258,2.732 q 0.43815,0.5155 0.69589,1.0825 0.25773,0.5412 0.25773,1.0309 0,1.031 -0.8763,1.7784 -0.8763,0.7217 -2.50003,0.7217 l -5.05161,0 0,-1.9588 4.53614,0 q 0.90207,0 1.23713,-0.1031 0.36083,-0.1031 0.36083,-0.4639 0,-0.3093 -0.28351,-0.6444 -0.25774,-0.335 -0.51547,-0.5928 l -2.26807,-2.4485 q -0.46392,-0.5154 -0.61857,-0.9794 l -3.22169,3.8145 -1.54641,-1.2886 z"
         style="font-style:normal;font-variant:normal;font-weight:normal;font-stretch:normal;font-family:Five;-inkscape-font-specification:Five;fill:#666666"
         id="path4230" />
    </g>
  </g>
</svg>
