<?xml version="1.0" encoding="UTF-8" standalone="no"?>
<!-- Created with Inkscape (http://www.inkscape.org/) -->

<svg
   xmlns:dc="http://purl.org/dc/elements/1.1/"
   xmlns:cc="http://creativecommons.org/ns#"
   xmlns:rdf="http://www.w3.org/1999/02/22-rdf-syntax-ns#"
   xmlns:svg="http://www.w3.org/2000/svg"
   xmlns="http://www.w3.org/2000/svg"
   xmlns:sodipodi="http://sodipodi.sourceforge.net/DTD/sodipodi-0.dtd"
   xmlns:inkscape="http://www.inkscape.org/namespaces/inkscape"
   width="200"
   height="65"
   viewBox="0 0 200 65"
   id="svg2"
   version="1.1"
   inkscape:version="0.91 r13725"
   sodipodi:docname="logo.svg">
  <defs
     id="defs4" />
  <sodipodi:namedview
     id="base"
     pagecolor="#ffffff"
     bordercolor="#666666"
     borderopacity="1.0"
     inkscape:pageopacity="0.0"
     inkscape:pageshadow="2"
     inkscape:zoom="3.959798"
     inkscape:cx="91.987813"
     inkscape:cy="42.284099"
     inkscape:document-units="px"
     inkscape:current-layer="layer1"
     showgrid="false"
     showguides="true"
     inkscape:guide-bbox="true"
     inkscape:window-width="1366"
     inkscape:window-height="715"
     inkscape:window-x="-8"
     inkscape:window-y="-8"
     inkscape:window-maximized="1"
     units="px">
    <sodipodi:guide
       position="201.02036,509.62197"
       orientation="1,0"
       id="guide4160" />
    <sodipodi:guide
       position="207.96516,511.51601"
       orientation="1,0"
       id="guide4162" />
  </sodipodi:namedview>
  <metadata
     id="metadata7">
    <rdf:RDF>
      <cc:Work
         rdf:about="">
        <dc:format>image/svg+xml</dc:format>
        <dc:type
           rdf:resource="http://purl.org/dc/dcmitype/StillImage" />
        <dc:title></dc:title>
      </cc:Work>
    </rdf:RDF>
  </metadata>
  <g
     inkscape:label="Calque 1"
     inkscape:groupmode="layer"
     id="layer1"
     transform="translate(0,-987.36216)">
    <g
       style="font-style:normal;font-weight:normal;font-size:40px;line-height:125%;font-family:sans-serif;letter-spacing:0px;word-spacing:0px;fill:#000000;fill-opacity:1;stroke:none;stroke-width:1px;stroke-linecap:butt;stroke-linejoin:miter;stroke-opacity:1"
       id="text4136"
       transform="matrix(2.3389678,0,0,2.3389678,-512.90695,-288.91318)">
      <path
         d="m 241.06285,572.36218 -1.16,0 q -2.52,0 -3.88,-1.04 -1.36,-1.08 -1.36,-3.88 l 0,-6.68 -11.72,0 0,11.6 -3.4,0 0,-26 3.4,0 0,11.2 11.72,0 0,-11.2 3.4,0 0,20.04 q 0,1.52 0.44,2.24 0.44,0.68 1.64,0.68 l 0.92,0 0,3.04 z"
         style="font-style:normal;font-variant:normal;font-weight:normal;font-stretch:normal;font-family:Five;-inkscape-font-specification:Five;fill:#666666;fill-opacity:1"
         id="path4165"
         inkscape:connector-curvature="0" />
      <path
         d="m 259.02848,572.36218 -8.08,0 q -2.08,0 -3.56,-0.56 -1.48,-0.56 -2.44,-1.44 -0.96,-0.92 -1.4,-2.08 -0.44,-1.16 -0.44,-2.36 0,-2.04 1,-4.12 1,-2.12 2.64,-3.8 1.64,-1.72 3.76,-2.8 2.16,-1.12 4.4,-1.12 0.88,0 1.56,0.32 0.68,0.32 1.12,0.88 0.48,0.52 0.72,1.24 0.24,0.68 0.24,1.44 0,2.8 -1.56,4.48 -1.56,1.68 -5.08,2.56 l -5.52,1.36 q 0.28,1.28 1.44,2.12 1.16,0.84 3.44,0.84 l 7.76,0 0,3.04 z m -4.68,-15.36 q -1.04,0 -2.16,0.56 -1.12,0.52 -2.16,1.4 -1,0.88 -1.84,1.96 -0.8,1.04 -1.28,2.08 l 2.56,-0.6 q 2.12,-0.48 3.32,-1 1.2,-0.56 1.76,-1.12 0.6,-0.56 0.72,-1.08 0.16,-0.52 0.16,-0.96 0,-0.68 -0.32,-0.96 -0.32,-0.28 -0.76,-0.28 z"
         style="font-style:normal;font-variant:normal;font-weight:normal;font-stretch:normal;font-family:Five;-inkscape-font-specification:Five;fill:#666666;fill-opacity:1"
         id="path4167"
         inkscape:connector-curvature="0" />
      <path
         d="m 265.1591,546.36218 0,20.16 q 0,1.56 0.44,2.2 0.44,0.6 2,0.6 l 0.72,0 0,3.04 -1.44,0 q -1.24,0 -2.2,-0.2 -0.96,-0.24 -1.6,-0.76 -0.64,-0.56 -0.96,-1.48 -0.32,-0.96 -0.32,-2.36 l 0,-21.2 3.36,0 z"
         style="font-style:normal;font-variant:normal;font-weight:normal;font-stretch:normal;font-family:Five;-inkscape-font-specification:Five;fill:#666666;fill-opacity:1"
         id="path4169"
         inkscape:connector-curvature="0" />
      <path
         d="m 274.45598,546.36218 0,20.16 q 0,1.56 0.44,2.2 0.44,0.6 2,0.6 l 0.72,0 0,3.04 -1.44,0 q -1.24,0 -2.2,-0.2 -0.96,-0.24 -1.6,-0.76 -0.64,-0.56 -0.96,-1.48 -0.32,-0.96 -0.32,-2.36 l 0,-21.2 3.36,0 z"
         style="font-style:normal;font-variant:normal;font-weight:normal;font-stretch:normal;font-family:Five;-inkscape-font-specification:Five;fill:#666666;fill-opacity:1"
         id="path4171"
         inkscape:connector-curvature="0" />
      <path
         d="m 304.71285,549.40218 -0.68,0 q -0.96,0 -2,0.4 -1,0.36 -2.08,0.92 1.4,1.92 2.08,4.32 0.68,2.4 0.68,4.84 0,2.48 -0.72,4.76 -0.68,2.28 -2.12,4.04 -1.44,1.76 -3.64,2.8 -2.16,1.04 -5.08,1.04 -2.92,0 -5.12,-1.04 -2.16,-1.04 -3.6,-2.8 -1.44,-1.76 -2.16,-4.04 -0.68,-2.28 -0.68,-4.76 0,-2.52 0.72,-4.96 0.72,-2.48 2.16,-4.44 1.48,-1.96 3.64,-3.16 2.16,-1.24 5.04,-1.24 2,0 3.64,0.6 1.64,0.6 2.92,1.64 1.52,-0.76 2.96,-1.36 1.48,-0.6 2.76,-0.6 l 1.28,0 0,3.04 z m -5.4,10.32 q 0,-2.04 -0.6,-4 -0.56,-1.96 -1.72,-3.44 -1.24,0.6 -2.56,1.04 -1.28,0.44 -2.64,0.44 -1.4,0 -2.64,-0.8 -1.24,-0.8 -1.88,-2.52 -1.08,0.68 -1.88,1.68 -0.8,1 -1.36,2.24 -0.52,1.2 -0.8,2.6 -0.24,1.36 -0.24,2.76 0,1.92 0.48,3.68 0.52,1.72 1.52,3.04 1.04,1.32 2.56,2.12 1.56,0.76 3.6,0.76 2.04,0 3.56,-0.76 1.52,-0.8 2.52,-2.12 1.04,-1.32 1.56,-3.04 0.52,-1.76 0.52,-3.68 z m -8.16,-10.36 q -0.72,0 -1.36,0.12 0.32,0.72 0.88,1 0.6,0.24 1.36,0.24 0.44,0 1,-0.16 0.56,-0.2 1.24,-0.52 -1.44,-0.68 -3.12,-0.68 z"
         style="font-style:normal;font-variant:normal;font-weight:normal;font-stretch:normal;font-family:Five;-inkscape-font-specification:Five;opacity:0.9;fill:#00b5b5;fill-opacity:1"
         id="path4173"
         inkscape:connector-curvature="0" />
    </g>
    <circle
       style="opacity:1;fill:#666666;fill-opacity:1;stroke:none;stroke-width:1;stroke-miterlimit:4;stroke-dasharray:none;stroke-opacity:1"
       id="path4140"
       cx="160.76265"
       cy="1013.9383"
       r="3.3116994" />
    <circle
       cy="1013.9383"
       cx="174.72502"
       id="circle4142"
       style="opacity:1;fill:#666666;fill-opacity:1;stroke:none;stroke-width:1;stroke-miterlimit:4;stroke-dasharray:none;stroke-opacity:1"
       r="3.3116994" />
    <path
       style="opacity:1;fill:#666666;fill-opacity:1;stroke:none;stroke-width:1;stroke-miterlimit:4;stroke-dasharray:none;stroke-opacity:1"
       id="path4144"
       sodipodi:type="arc"
       sodipodi:cx="167.80267"
       sodipodi:cy="1027.9618"
       sodipodi:rx="11.813571"
       sodipodi:ry="11.813571"
       sodipodi:start="0"
       sodipodi:end="3.1415927"
       d="m 179.61624,1027.9618 a 11.813571,11.813571 0 0 1 -5.90678,10.2308 11.813571,11.813571 0 0 1 -11.81357,0 11.813571,11.813571 0 0 1 -5.90679,-10.2308 l 11.81357,0 z" />
  </g>
</svg>
